<svg width="50" height="50" viewBox="0 0 50 50" fill="none" xmlns="http://www.w3.org/2000/svg">
<g id="code-braces 1">
<path id="Vector" d="M16.7094 6.25C15.6089 6.25 14.5535 6.68899 13.7753 7.47039C12.9972 8.25179 12.56 9.3116 12.56 10.4167V18.75C12.56 19.8551 12.1228 20.9149 11.3447 21.6963C10.5665 22.4777 9.51111 22.9167 8.41063 22.9167H6.33594V27.0833H8.41063C9.51111 27.0833 10.5665 27.5223 11.3447 28.3037C12.1228 29.0851 12.56 30.1449 12.56 31.25V39.5833C12.56 40.6884 12.9972 41.7482 13.7753 42.5296C14.5535 43.311 15.6089 43.75 16.7094 43.75H20.8588V39.5833H16.7094V29.1667C16.7094 28.0616 16.2722 27.0018 15.4941 26.2204C14.7159 25.439 13.6605 25 12.56 25C13.6605 25 14.7159 24.561 15.4941 23.7796C16.2722 22.9982 16.7094 21.9384 16.7094 20.8333V10.4167H20.8588V6.25M33.3069 6.25C34.4074 6.25 35.4628 6.68899 36.2409 7.47039C37.0191 8.25179 37.4563 9.3116 37.4563 10.4167V18.75C37.4563 19.8551 37.8934 20.9149 38.6716 21.6963C39.4498 22.4777 40.5052 22.9167 41.6056 22.9167H43.6803V27.0833H41.6056C40.5052 27.0833 39.4498 27.5223 38.6716 28.3037C37.8934 29.0851 37.4563 30.1449 37.4563 31.25V39.5833C37.4563 40.6884 37.0191 41.7482 36.2409 42.5296C35.4628 43.311 34.4074 43.75 33.3069 43.75H29.1575V39.5833H33.3069V29.1667C33.3069 28.0616 33.7441 27.0018 34.5222 26.2204C35.3004 25.439 36.3558 25 37.4563 25C36.3558 25 35.3004 24.561 34.5222 23.7796C33.7441 22.9982 33.3069 21.9384 33.3069 20.8333V10.4167H29.1575V6.25H33.3069Z" fill="#70FF00"/>
</g>
</svg>
