<svg width="32" height="28" viewBox="0 0 32 28" fill="none" xmlns="http://www.w3.org/2000/svg">
<g id="Group 1000002054">
<path id="Vector" d="M31.0955 15.6804L27.2564 1.26635C27.1665 0.917373 26.9672 0.606355 26.6877 0.378833C26.4082 0.151311 26.0632 0.0192351 25.7033 0.00194421C25.3433 -0.0153467 24.9873 0.0830555 24.6873 0.282743C24.3873 0.48243 24.1591 0.772913 24.0361 1.11166L21.1392 8.8601H10.0298L7.13296 1.11166C7.00999 0.772913 6.78179 0.48243 6.4818 0.282743C6.1818 0.0830555 5.82575 -0.0153467 5.46578 0.00194421C5.10582 0.0192351 4.76084 0.151311 4.48137 0.378833C4.20189 0.606355 4.00259 0.917373 3.91265 1.26635L0.0735863 15.6804C-0.0437357 16.1293 -0.020327 16.6034 0.140645 17.0385C0.301617 17.4736 0.59238 17.8488 0.973586 18.1132L14.3048 27.3382C14.6786 27.6041 15.1259 27.7469 15.5845 27.7469C16.0432 27.7469 16.4905 27.6041 16.8642 27.3382L30.1955 18.1132C30.5767 17.8488 30.8674 17.4736 31.0284 17.0385C31.1894 16.6034 31.2128 16.1293 31.0955 15.6804ZM15.5845 25.496L2.25327 16.257L5.64234 3.54447L8.20171 10.3788C8.28367 10.5926 8.42813 10.7767 8.61627 10.9072C8.8044 11.0376 9.02748 11.1083 9.2564 11.1101H21.9126C22.1416 11.1083 22.3646 11.0376 22.5528 10.9072C22.7409 10.7767 22.8854 10.5926 22.9673 10.3788L25.5267 3.54447L28.9158 16.257L15.5845 25.496Z" fill="#439900"/>
</g>
</svg>
