<svg width="29" height="29" viewBox="0 0 29 29" fill="none" xmlns="http://www.w3.org/2000/svg">
<g id="Group 1000002056">
<path id="Vector" d="M14.0495 7.59831C10.0592 7.59831 6.83894 10.8186 6.83894 14.8089C6.83894 18.7991 10.0592 22.0194 14.0495 22.0194C18.0397 22.0194 21.26 18.7991 21.26 14.8089C21.26 10.8186 18.0397 7.59831 14.0495 7.59831ZM14.0495 19.4952C11.469 19.4952 9.36316 17.3893 9.36316 14.8089C9.36316 12.2284 11.469 10.1225 14.0495 10.1225C16.63 10.1225 18.7358 12.2284 18.7358 14.8089C18.7358 17.3893 16.63 19.4952 14.0495 19.4952ZM21.5553 5.62253C20.6237 5.62253 19.8714 6.37487 19.8714 7.30651C19.8714 8.23815 20.6237 8.9905 21.5553 8.9905C22.487 8.9905 23.2393 8.24167 23.2393 7.30651C23.2396 7.08529 23.1962 6.86619 23.1117 6.66175C23.0272 6.45732 22.9031 6.27157 22.7467 6.11514C22.5903 5.95871 22.4045 5.83468 22.2001 5.75015C21.9957 5.66562 21.7766 5.62225 21.5553 5.62253ZM28.105 14.8089C28.105 12.8682 28.1225 10.9452 28.0135 9.00808C27.9046 6.75808 27.3913 4.7612 25.746 3.11589C24.0971 1.46706 22.1038 0.957296 19.8538 0.848311C17.9132 0.739327 15.9901 0.756905 14.053 0.756905C12.1124 0.756905 10.1893 0.739327 8.25222 0.848311C6.00222 0.957296 4.00534 1.47058 2.36003 3.11589C0.711202 4.76472 0.201436 6.75808 0.0924519 9.00808C-0.0165325 10.9487 0.0010457 12.8717 0.0010457 14.8089C0.0010457 16.746 -0.0165325 18.6725 0.0924519 20.6096C0.201436 22.8596 0.714718 24.8565 2.36003 26.5018C4.00886 28.1507 6.00222 28.6604 8.25222 28.7694C10.1928 28.8784 12.1159 28.8608 14.053 28.8608C15.9936 28.8608 17.9167 28.8784 19.8538 28.7694C22.1038 28.6604 24.1007 28.1471 25.746 26.5018C27.3948 24.853 27.9046 22.8596 28.0135 20.6096C28.126 18.6725 28.105 16.7495 28.105 14.8089ZM25.0112 23.0987C24.7546 23.7385 24.4452 24.2167 23.9495 24.7089C23.4538 25.2046 22.9792 25.5139 22.3393 25.7706C20.4901 26.5053 16.0991 26.3401 14.0495 26.3401C11.9999 26.3401 7.60534 26.5053 5.75612 25.7741C5.11628 25.5175 4.63816 25.2081 4.14597 24.7124C3.65026 24.2167 3.34089 23.7421 3.08425 23.1022C2.353 21.2495 2.51823 16.8585 2.51823 14.8089C2.51823 12.7592 2.353 8.36472 3.08425 6.5155C3.34089 5.87565 3.65026 5.39753 4.14597 4.90534C4.64167 4.41316 5.11628 4.10026 5.75612 3.84362C7.60534 3.11237 11.9999 3.27761 14.0495 3.27761C16.0991 3.27761 20.4936 3.11237 22.3428 3.84362C22.9827 4.10026 23.4608 4.40964 23.953 4.90534C24.4487 5.40105 24.7581 5.87565 25.0147 6.5155C25.746 8.36472 25.5807 12.7592 25.5807 14.8089C25.5807 16.8585 25.746 21.2495 25.0112 23.0987Z" fill="#439900"/>
</g>
</svg>
