<svg width="31" height="31" viewBox="0 0 31 31" fill="none" xmlns="http://www.w3.org/2000/svg">
<g id="Group 1000002055">
<path id="Vector" d="M7.36664 11.2566H1.36664C1.16773 11.2566 0.976965 11.3356 0.836312 11.4762C0.69566 11.6169 0.616642 11.8076 0.616642 12.0066V30.0066C0.616642 30.2055 0.69566 30.3962 0.836312 30.5369C0.976965 30.6775 1.16773 30.7566 1.36664 30.7566H7.36664C7.56555 30.7566 7.75632 30.6775 7.89697 30.5369C8.03762 30.3962 8.11664 30.2055 8.11664 30.0066V12.0066C8.11664 11.8076 8.03762 11.6169 7.89697 11.4762C7.75632 11.3356 7.56555 11.2566 7.36664 11.2566ZM6.61664 29.2566H2.11664V12.7566H6.61664V29.2566ZM23.1166 11.2566C21.4891 11.2566 19.9066 11.7936 18.6166 12.7851V12.0066C18.6166 11.8076 18.5376 11.6169 18.397 11.4762C18.2563 11.3356 18.0656 11.2566 17.8666 11.2566H11.8666C11.6677 11.2566 11.477 11.3356 11.3363 11.4762C11.1957 11.6169 11.1166 11.8076 11.1166 12.0066V30.0066C11.1166 30.2055 11.1957 30.3962 11.3363 30.5369C11.477 30.6775 11.6677 30.7566 11.8666 30.7566H17.8666C18.0656 30.7566 18.2563 30.6775 18.397 30.5369C18.5376 30.3962 18.6166 30.2055 18.6166 30.0066V21.7566C18.6166 21.1598 18.8537 20.5875 19.2757 20.1656C19.6976 19.7436 20.2699 19.5066 20.8666 19.5066C21.4634 19.5066 22.0357 19.7436 22.4576 20.1656C22.8796 20.5875 23.1166 21.1598 23.1166 21.7566V30.0066C23.1166 30.2055 23.1957 30.3962 23.3363 30.5369C23.477 30.6775 23.6677 30.7566 23.8666 30.7566H29.8666C30.0656 30.7566 30.2563 30.6775 30.397 30.5369C30.5376 30.3962 30.6166 30.2055 30.6166 30.0066V18.7566C30.6143 16.7682 29.8233 14.8619 28.4173 13.4559C27.0113 12.0499 25.105 11.2589 23.1166 11.2566ZM29.1166 29.2566H24.6166V21.7566C24.6166 20.762 24.2216 19.8082 23.5183 19.1049C22.815 18.4016 21.8612 18.0066 20.8666 18.0066C19.8721 18.0066 18.9183 18.4016 18.215 19.1049C17.5117 19.8082 17.1166 20.762 17.1166 21.7566V29.2566H12.6166V12.7566H17.1166V14.5611C17.1166 14.7164 17.1648 14.8679 17.2546 14.9947C17.3444 15.1214 17.4713 15.2172 17.6178 15.2687C17.7644 15.3203 17.9233 15.325 18.0726 15.2824C18.222 15.2397 18.3544 15.1517 18.4516 15.0306C19.2219 14.0542 20.2777 13.3425 21.4718 12.9948C22.6658 12.6471 23.9386 12.6806 25.1127 13.0908C26.2868 13.501 27.3036 14.2673 28.0213 15.283C28.739 16.2986 29.122 17.5129 29.1166 18.7566V29.2566ZM4.91864 0.759552C4.74239 0.74713 4.56552 0.746127 4.38914 0.756552C3.82779 0.718357 3.26458 0.795826 2.73439 0.984161C2.2042 1.1725 1.71833 1.46768 1.30687 1.85144C0.895409 2.2352 0.567124 2.69936 0.342351 3.21515C0.117578 3.73095 0.00110317 4.28741 0.000142297 4.85005C-0.00451621 5.40682 0.105254 5.95861 0.322645 6.4712C0.540036 6.98379 0.860414 7.44626 1.26391 7.82993C1.66741 8.2136 2.14542 8.51028 2.66831 8.70159C3.1912 8.89289 3.74782 8.97474 4.30364 8.94205H4.34564C4.88291 8.97968 5.42233 8.91111 5.9331 8.74026C6.44388 8.56942 6.91599 8.29964 7.32251 7.94634C7.72902 7.59303 8.06196 7.16312 8.30233 6.68115C8.54269 6.19917 8.68577 5.67457 8.72339 5.1373C8.76102 4.60003 8.69245 4.06061 8.5216 3.54984C8.35076 3.03907 8.08098 2.56695 7.72768 2.16044C7.37437 1.75393 6.94446 1.42098 6.46249 1.18062C5.98051 0.940254 5.45591 0.797176 4.91864 0.759552ZM4.86614 7.44655C4.69292 7.4623 4.51856 7.46079 4.34564 7.44205H4.30364C3.94264 7.46919 3.57994 7.42075 3.2387 7.29984C2.89746 7.17892 2.58519 6.98818 2.32182 6.73979C2.05844 6.4914 1.84976 6.19082 1.70908 5.85725C1.5684 5.52367 1.49883 5.16443 1.5048 4.80245C1.51076 4.44047 1.59214 4.08372 1.74374 3.75496C1.89534 3.4262 2.11382 3.13267 2.38524 2.8931C2.65666 2.65353 2.97505 2.47318 3.32009 2.36358C3.66513 2.25398 4.02923 2.21753 4.38914 2.25655C5.07738 2.1933 5.76256 2.40604 6.29394 2.84796C6.82532 3.28989 7.15939 3.92482 7.22264 4.61305C7.2859 5.30129 7.07316 5.98646 6.63123 6.51785C6.1893 7.04923 5.55438 7.3833 4.86614 7.44655Z" fill="#439900"/>
</g>
</svg>
